<?xml version="1.0" encoding="utf-8"?>
<!-- Generator: Adobe Illustrator 24.0.1, SVG Export Plug-In . SVG Version: 6.00 Build 0)  -->
<svg version="1.1" id="Layer_1" xmlns="http://www.w3.org/2000/svg" xmlns:xlink="http://www.w3.org/1999/xlink" x="0px" y="0px"
	 viewBox="0 0 300 66.7" style="enable-background:new 0 0 300 66.7;" xml:space="preserve">
<style type="text/css">
	.st0{fill:url(#_Compound_Path__1_);}
	.st1{fill:#C00822;}
	.st2{fill:#FFFFFF;}
	.st3{fill:url(#SVGID_1_);}
	.st4{fill:url(#SVGID_2_);}
	.st5{fill:url(#SVGID_3_);}
	.st6{fill:url(#SVGID_4_);}
	.st7{fill:url(#SVGID_5_);}
	.st8{fill:url(#SVGID_6_);}
	.st9{fill:url(#SVGID_7_);}
	.st10{fill:url(#SVGID_8_);}
	.st11{fill:url(#SVGID_9_);}
	.st12{fill:url(#SVGID_10_);}
	.st13{fill:url(#SVGID_11_);}
</style>
<title>Asset 1</title>
<g>
	<g id="Layer_2_1_">
		<g id="Layer_2-2">
			<g id="_Group_">
				<g id="_Group_2">
					
						<linearGradient id="_Compound_Path__1_" gradientUnits="userSpaceOnUse" x1="0" y1="989.3996" x2="66.8" y2="989.3996" gradientTransform="matrix(1 0 0 1 0 -956)">
						<stop  offset="0" style="stop-color:#203019"/>
						<stop  offset="0.17" style="stop-color:#23411F"/>
						<stop  offset="0.49" style="stop-color:#295A27"/>
						<stop  offset="0.77" style="stop-color:#2C6A2C"/>
						<stop  offset="1" style="stop-color:#2D6F2E"/>
					</linearGradient>
					<path id="_Compound_Path_" class="st0" d="M57,36.9v8.6C57.1,51.8,52,57,45.6,57h-25c-6.3,0-11.4-5.1-11.4-11.4V20.8
						c0-6.3,5.1-11.4,11.4-11.4l0,0h24.3l7.9-7.9c0.1,0,0.1-0.1,0-0.2l0,0c-2.2-0.8-4.6-1.2-7-1.2h-25C9.3,0,0,9.3,0,20.8
						c0,0,0,0,0,0.1v24.9c0,11.5,9.3,20.9,20.8,20.9h0.1h25c11.5,0,20.9-9.4,20.9-20.9V27.9c0-0.1,0-0.1-0.1-0.1h-0.1
						C66.5,27.7,57,36.9,57,36.9z"/>
				</g>
				<g id="_Group_3">
					<path id="_Path_" class="st1" d="M73,7.7L34.3,46.2c-0.1,0.1-0.2,0.1-0.2,0L19.5,31.5v-0.1c0.6-2.5,2.1-4.8,4.2-6.3
						c0.6-0.5,1.2-0.9,1.9-1.2h0.1l8.8,8.8l0.1,0.1c0.1,0,0.1-0.1,0.1-0.1l31.9-32h0.1C69.7,2.1,71.9,4.6,73,7.7z"/>
					<circle id="_Path_2" class="st2" cx="34.2" cy="38.2" r="2.4"/>
				</g>
			</g>
			<g id="_Group_4">
				
					<linearGradient id="SVGID_1_" gradientUnits="userSpaceOnUse" x1="81.14" y1="997.363" x2="114.84" y2="997.363" gradientTransform="matrix(1 0 0 1 0 -956)">
					<stop  offset="0" style="stop-color:#203019"/>
					<stop  offset="0.17" style="stop-color:#23411F"/>
					<stop  offset="0.49" style="stop-color:#295A27"/>
					<stop  offset="0.77" style="stop-color:#2C6A2C"/>
					<stop  offset="1" style="stop-color:#2D6F2E"/>
				</linearGradient>
				<path class="st3" d="M113.3,30.8h-8.2c-0.8,0-1.4,0.6-1.4,1.4l0,0v29.1c0,0.4-0.1,0.7-0.3,1c-0.3,0.3-0.7,0.5-1.1,0.4h-8.7
					c-0.8,0-1.4-0.6-1.4-1.4l0,0V32.2c0-0.4-0.1-0.7-0.3-1c-0.3-0.3-0.7-0.5-1.1-0.4h-8.3c-0.8,0-1.4-0.6-1.4-1.4l0,0v-8
					c0-0.8,0.6-1.4,1.4-1.4h30.8c0.4,0,0.8,0.1,1.1,0.4c0.3,0.3,0.4,0.6,0.4,1v8c0,0.4-0.1,0.8-0.4,1
					C114.1,30.7,113.7,30.8,113.3,30.8z"/>
				
					<linearGradient id="SVGID_2_" gradientUnits="userSpaceOnUse" x1="118.55" y1="997.45" x2="130.0875" y2="997.45" gradientTransform="matrix(1 0 0 1 0 -956)">
					<stop  offset="0" style="stop-color:#203019"/>
					<stop  offset="0.17" style="stop-color:#23411F"/>
					<stop  offset="0.49" style="stop-color:#295A27"/>
					<stop  offset="0.77" style="stop-color:#2C6A2C"/>
					<stop  offset="1" style="stop-color:#2D6F2E"/>
				</linearGradient>
				<path class="st4" d="M128.7,62.8h-8.8c-0.4,0.1-0.8-0.1-1-0.4c-0.3-0.3-0.4-0.6-0.3-1V21.5c0-0.4,0.1-0.7,0.3-1
					c0.2-0.3,0.6-0.5,1-0.4h8.8c0.8,0,1.4,0.6,1.4,1.4v39.8c0,0.4-0.1,0.8-0.4,1C129.4,62.6,129.1,62.8,128.7,62.8z"/>
				
					<linearGradient id="SVGID_3_" gradientUnits="userSpaceOnUse" x1="136.76" y1="997.35" x2="184.34" y2="997.35" gradientTransform="matrix(1 0 0 1 0 -956)">
					<stop  offset="0" style="stop-color:#203019"/>
					<stop  offset="0.17" style="stop-color:#23411F"/>
					<stop  offset="0.49" style="stop-color:#295A27"/>
					<stop  offset="0.77" style="stop-color:#2C6A2C"/>
					<stop  offset="1" style="stop-color:#2D6F2E"/>
				</linearGradient>
				<path class="st5" d="M184.3,21.5v39.8c0,0.4-0.1,0.8-0.4,1c-0.3,0.3-0.6,0.4-1,0.4h-8.7c-0.4,0-0.8-0.1-1-0.4
					c-0.3-0.3-0.4-0.6-0.4-1V42.5c0-0.3-0.1-0.6-0.4-0.7h-0.1c-0.3,0-0.7,0.1-0.9,0.4L161.5,58c-0.2,0.3-0.6,0.5-1,0.4
					c-0.4,0.1-0.8-0.1-1-0.4l-9.8-15.8c-0.2-0.3-0.5-0.4-0.9-0.4c-0.3,0-0.5,0.2-0.5,0.5v18.9c0,0.4-0.1,0.8-0.4,1
					c-0.3,0.3-0.6,0.4-1,0.4H138c-0.8,0-1.4-0.6-1.4-1.4l0,0V21.5c0-0.8,0.6-1.4,1.4-1.4h8.2c0.4,0,0.8,0.1,1.2,0.3
					c0.4,0.2,0.7,0.5,1,0.9l11.2,16.4c0.2,0.3,0.5,0.4,0.9,0.4c0.3,0,0.6-0.2,0.8-0.4l11.2-16.5c0.3-0.3,0.6-0.6,1-0.9
					c0.4-0.2,0.8-0.3,1.2-0.3h8.2c0.4,0,0.8,0.1,1,0.4C184.2,20.8,184.4,21.1,184.3,21.5z"/>
				
					<linearGradient id="SVGID_4_" gradientUnits="userSpaceOnUse" x1="192.5" y1="997.6" x2="225" y2="997.6" gradientTransform="matrix(1 0 0 1 0 -956)">
					<stop  offset="0" style="stop-color:#203019"/>
					<stop  offset="0.17" style="stop-color:#23411F"/>
					<stop  offset="0.49" style="stop-color:#295A27"/>
					<stop  offset="0.77" style="stop-color:#2C6A2C"/>
					<stop  offset="1" style="stop-color:#2D6F2E"/>
				</linearGradient>
				<path class="st6" d="M204,32.2v2.5c0,0.8,0.6,1.4,1.4,1.4h15.8c0.8,0,1.4,0.6,1.4,1.4l0,0v8.1c0,0.8-0.6,1.4-1.4,1.4h-15.8
					c-0.8,0-1.4,0.6-1.4,1.4l0,0v2.3c0,0.8,0.6,1.4,1.4,1.4h18.2c0.8,0,1.4,0.6,1.4,1.4l0,0v8.1c0,0.8-0.6,1.4-1.4,1.4h-29.7
					c-0.8,0-1.4-0.6-1.4-1.4l0,0v-40c0-0.8,0.6-1.4,1.4-1.4h29.7c0.8,0,1.4,0.6,1.4,1.4l0,0v8c0,0.8-0.6,1.4-1.4,1.4h-18.2
					C204.7,30.9,204,31.5,204,32.2z"/>
				
					<linearGradient id="SVGID_5_" gradientUnits="userSpaceOnUse" x1="228.7384" y1="1013.3" x2="240.5721" y2="1013.3" gradientTransform="matrix(1 0 0 1 0 -956)">
					<stop  offset="0" style="stop-color:#203019"/>
					<stop  offset="0.17" style="stop-color:#23411F"/>
					<stop  offset="0.49" style="stop-color:#295A27"/>
					<stop  offset="0.77" style="stop-color:#2C6A2C"/>
					<stop  offset="1" style="stop-color:#2D6F2E"/>
				</linearGradient>
				<path class="st7" d="M240.6,57.2c0,3.3-2.6,6-5.9,6l0,0c-0.8,0-1.5-0.1-2.3-0.4c-2.3-0.9-3.7-3.1-3.7-5.6c0-0.8,0.1-1.5,0.4-2.3
					c0.3-0.7,0.8-1.3,1.3-1.8c0.6-0.6,1.2-1,1.9-1.3s1.5-0.4,2.3-0.4c1.6,0,3.1,0.6,4.3,1.7c0.5,0.5,0.9,1.1,1.2,1.8
					C240.4,55.6,240.6,56.4,240.6,57.2z"/>
				
					<linearGradient id="SVGID_6_" gradientUnits="userSpaceOnUse" x1="244.02" y1="997.463" x2="255.52" y2="997.463" gradientTransform="matrix(1 0 0 1 0 -956)">
					<stop  offset="0" style="stop-color:#203019"/>
					<stop  offset="0.17" style="stop-color:#23411F"/>
					<stop  offset="0.49" style="stop-color:#295A27"/>
					<stop  offset="0.77" style="stop-color:#2C6A2C"/>
					<stop  offset="1" style="stop-color:#2D6F2E"/>
				</linearGradient>
				<path class="st8" d="M254.1,62.8h-8.7c-0.4,0.1-0.8-0.1-1-0.4c-0.3-0.3-0.4-0.6-0.4-1V21.5c0-0.8,0.6-1.4,1.4-1.4h8.7
					c0.8,0,1.4,0.6,1.4,1.4l0,0v39.8C255.5,62.1,254.9,62.7,254.1,62.8C254.2,62.8,254.1,62.8,254.1,62.8L254.1,62.8z"/>
				
					<linearGradient id="SVGID_7_" gradientUnits="userSpaceOnUse" x1="262.3" y1="997.4" x2="300" y2="997.4" gradientTransform="matrix(1 0 0 1 0 -956)">
					<stop  offset="0" style="stop-color:#203019"/>
					<stop  offset="0.17" style="stop-color:#23411F"/>
					<stop  offset="0.49" style="stop-color:#295A27"/>
					<stop  offset="0.77" style="stop-color:#2C6A2C"/>
					<stop  offset="1" style="stop-color:#2D6F2E"/>
				</linearGradient>
				<path class="st9" d="M272.4,62.8h-8.7c-0.4,0-0.8-0.1-1-0.4c-0.3-0.3-0.4-0.6-0.4-1v-40c0-0.8,0.6-1.4,1.4-1.4h18.2
					c2.1,0,4.3,0.4,6.2,1.2c1.8,0.7,3.5,1.8,4.9,3.2c1.4,1.4,2.4,3,3.1,4.8c0.8,2,1.2,4.1,1.2,6.2c0,2.5-0.6,5-1.7,7.2
					c-0.5,1-1.2,2-1.9,2.9c-0.7,0.8-1.5,1.6-2.5,2.2c-0.3,0.2-0.5,0.5-0.6,0.9c-0.1,0.3,0,0.7,0.2,1c1.5,1.9,3,4,4.6,6
					s3.1,4,4.4,5.7c0.2,0.3,0.3,0.7,0.2,1c-0.1,0.3-0.4,0.5-0.8,0.5h-10.9c-0.4,0-0.9-0.1-1.3-0.3s-0.8-0.4-1.1-0.8
					c-1.3-1.6-2.5-3.3-3.7-4.9s-2.5-3.3-3.6-5.1c-0.5-0.6-1.3-1-2.1-1.1h-1.3c-0.8,0-1.4,0.6-1.4,1.4l0,0v9.4
					C273.8,62.2,273.2,62.8,272.4,62.8L272.4,62.8z M275.2,39.8h6.1c0.5,0,0.9-0.1,1.4-0.2c0.5-0.2,1-0.5,1.4-0.9s0.8-0.9,1.1-1.4
					c0.3-0.6,0.4-1.3,0.4-1.9c0-0.5-0.1-0.9-0.2-1.4c-0.1-0.6-0.4-1.1-0.8-1.5c-0.4-0.5-0.8-1-1.4-1.3s-1.3-0.5-2-0.5h-6.1
					c-0.8,0-1.4,0.6-1.4,1.4v6.2C273.9,39.1,274.5,39.7,275.2,39.8L275.2,39.8z"/>
			</g>
			
				<linearGradient id="SVGID_8_" gradientUnits="userSpaceOnUse" x1="106.27" y1="998.5494" x2="101.66" y2="988.0294" gradientTransform="matrix(1 0 0 1 0 -956)">
				<stop  offset="0" style="stop-color:#5DAA37"/>
				<stop  offset="1" style="stop-color:#A5CF35"/>
			</linearGradient>
			<path class="st10" d="M116.4,19.1c-0.1,3.1-3.9,6-6.5,7.5l-0.4,0.2c-3.6,1.9-7.4,3.6-10.7,6.1c-1.3,0.8-2.5,1.9-3.5,3
				c-0.4,0.5-0.8,1.1-1.1,1.7c-2.3,4.3-2.3,10.3-1.8,14.8c0,0.1,0,0.2,0,0.3c0-1.3,0.2-2.7,0.4-4c0.3-1.3,0.8-2.5,1.4-3.7
				c2.2-4.4,5.7-8.1,10-10.5c1.8-1,3.5-2.1,5.1-3.3c-1.8,1.5-3.5,3-5.3,4.4c-4.1,3.2-8.2,7.3-9.7,12.4c-0.2,0.7-0.4,1.4-0.5,2.1
				c-0.5,2.9-0.6,5.8-0.3,8.7c0.2,1,0.5,2,0.8,3l0,0c-0.1-0.5-0.1-0.9,0-1.4c0.1-0.9,0.5-2,0.6-2.6c0.3-1.3,0.7-2.5,1.2-3.7
				c0.8-2,1.7-3.9,2.9-5.7c1.9-2.8,4.1-5.5,6.7-7.8c1.2-1.2,2.5-2.4,3.7-3.6c2.9-3,5.4-6.1,6.6-10.3c0.1-0.4,0.2-0.7,0.3-1.1
				C116.5,23.3,116.3,21.3,116.4,19.1z"/>
			
				<linearGradient id="SVGID_9_" gradientUnits="userSpaceOnUse" x1="174.8662" y1="998.5537" x2="166.6162" y2="989.9137" gradientTransform="matrix(1 0 0 1 0 -956)">
				<stop  offset="0" style="stop-color:#5DAA37"/>
				<stop  offset="1" style="stop-color:#A5CF35"/>
			</linearGradient>
			<path class="st11" d="M184,20.3h-0.3c-0.6,0-1.3,0.1-1.9,0.3c-2.1,0.7-3.8,2.9-4.9,4.7c-1.9,3-3.2,6.3-3.9,9.8
				c-0.2,1.2-0.5,2.4-0.7,3.5l0,0c-0.4,2.3-0.8,4.5-1.4,6.8c-0.2,0.8-0.4,1.7-0.7,2.5c-0.4,1.5-1,2.9-1.8,4.2
				c-0.3,0.6-0.7,1.1-1.2,1.5c-1.5,1.6-3.5,2.6-5.7,3l-0.5,0.1c-0.8,0.1-1.6,0.1-2.4,0h-0.1c0.3,0,0.5-0.1,0.8-0.1
				c0.2-0.1,0.5-0.2,0.7-0.3c5-2.1,6-8.5,6.5-13.3c0.2-2.2,0.5-4.4,1-6.6c0.3-1.2,0.7-2.4,1.1-3.5c0.2-0.6,0.5-1.1,0.8-1.7
				c0.2-0.4,0.6-1.3,1-1.6c-0.9,0.6-1.7,1.3-2.4,2.2c-0.9,1.4-1.6,3.1-1.9,4.8c-0.1,0.3-0.1,0.5-0.1,0.8c-1,6.3-1.3,13.5-6.4,18.1
				l0,0c-0.5,0.4-1.1,0.8-1.8,1l0.3-0.2c0.5-0.4,0.9-0.8,1.3-1.3c1.2-1.8,2-3.8,2.2-5.9c0.3-1.8,0.5-3.5,0.6-5.3
				c0.1-2,0.2-4,0.4-5.9c0.1-2.8,0.7-5.6,1.8-8.3c1.6-3.6,4.4-6.5,7.9-8.3l0.3-0.1l0,0c0.5-0.2,1-0.4,1.6-0.6
				c0.4-0.1,0.9-0.3,1.3-0.4C178.3,19.6,181.2,19.7,184,20.3z"/>
			
				<linearGradient id="SVGID_10_" gradientUnits="userSpaceOnUse" x1="209.208" y1="1015.0324" x2="208.348" y2="998.2724" gradientTransform="matrix(1 0 0 1 0 -956)">
				<stop  offset="0" style="stop-color:#5DAA37"/>
				<stop  offset="1" style="stop-color:#A5CF35"/>
			</linearGradient>
			<path class="st12" d="M218.7,37.5c-5.2,0.4-10.6,0.2-15.6,2l-0.8,0.3c-6.3,2.7-9.6,8.6-10.4,15v6.6c0,0.2,0.1,0.5,0.1,0.7
				c0.9-9.6,6.3-14.1,11.2-16.1c2.8-1.1,5.7-1.7,8.7-1.7c-3.1,0.3-6.1,1.5-8.7,3.3c-4,2.6-8.4,7.4-10.9,16l0,0
				c2.2-5.2,6.1-9.5,10.9-12.4l0.9-0.5c3.3-1.7,6.9-2.2,10.4-3.1c2-0.5,3.8-1.4,5.4-2.6c3.4-2.5,4.7-6.1,5.5-10.1
				C225.2,35.1,224.6,37.1,218.7,37.5z"/>
			
				<linearGradient id="SVGID_11_" gradientUnits="userSpaceOnUse" x1="276.8902" y1="1011.4162" x2="281.7002" y2="997.5062" gradientTransform="matrix(1 0 0 1 0 -956)">
				<stop  offset="0" style="stop-color:#5DAA37"/>
				<stop  offset="1" style="stop-color:#A5CF35"/>
			</linearGradient>
			<path class="st13" d="M296.5,31.6c-0.5-1.5-1.3-2.9-2.3-4.1c-0.3-0.3-0.6-0.6-0.9-0.9c-0.1,0.9-0.3,1.9-0.6,2.8
				c-1.3,3.4-3.8,6.2-6.9,8l-0.5,0.3c-1.8,0.9-3.7,1.6-5.7,2.2c-1,0.4-2,0.7-3,1.2c-0.8,0.3-1.5,0.6-2.3,1
				c-5.3,2.3-10.2,5.8-11.3,11.8c0,0.1,0,0.1,0,0.2c-0.3,1.2-0.4,2.4-0.5,3.6v0.1c0.1-0.2,0.1-0.4,0.2-0.6c0.4-0.8,0.8-1.7,1.2-2.5
				l0.1-0.2l0.3-0.5c0.2-0.3,0.4-0.6,0.6-0.9c0.1-0.1,0.2-0.2,0.2-0.3l0,0c0.1-0.2,0.3-0.4,0.5-0.6c2.3-2.7,5.4-4.2,8.6-5.3
				c1.2-0.4,2.4-0.8,3.5-1.2c3-0.9,5.8-2.1,8.5-3.6s5-3.7,6.5-6.4c-1.5,3.6-4.1,6.5-7.5,8.5s-7.4,2.9-11.1,4.2
				c-2.5,0.8-4.7,2-6.7,3.7l-0.2,0.2l-0.3,0.2c-0.3,0.3-0.6,0.6-0.9,0.9c-0.1,0.1-0.2,0.3-0.4,0.4s-0.2,0.2-0.3,0.3
				c-0.1,0.1-0.2,0.3-0.4,0.4c-0.1,0.2-0.3,0.4-0.4,0.6l-0.2,0.3c-0.2,0.3-0.4,0.6-0.5,0.9l0,0c-0.1,0.2-0.2,0.3-0.3,0.5
				c-0.3,0.5-0.6,1.1-0.8,1.6c0,0.1-0.1,0.2-0.1,0.3l-0.1,0.1v0.1c0,0.1-0.1,0.1-0.1,0.2v0.1v0.2c0-0.1,0.2-0.4,0.4-0.8
				c0.1-0.1,0.2-0.3,0.2-0.4c0.3-0.4,0.6-0.9,1-1.2l0.4-0.4l0.2-0.2c2.5-2.3,5.9-3.2,9.1-3.7l0.5-0.1l1.3-0.2
				c2.8-0.5,5.5-1.1,8.2-1.9c3.2-0.8,6.3-2.2,9-4.1c2-1.6,3.4-3.8,4-6.3c0.3-1.2,0.5-2.4,0.5-3.6C297.3,34.8,297,33.1,296.5,31.6z"
				/>
		</g>
	</g>
</g>
</svg>
